<svg width="16" height="16" viewBox="0 0 16 16" fill="none" xmlns="http://www.w3.org/2000/svg">
<path d="M7.99995 14.75C7.67495 14.75 7.34995 14.625 7.09995 14.4C6.52495 13.9 5.99995 13.45 5.52495 13.05C4.09995 11.825 2.84995 10.8 1.97495 9.75C0.949951 8.5 0.449951 7.325 0.449951 6C0.449951 4.725 0.899951 3.525 1.69995 2.65C2.52495 1.75 3.67495 1.25 4.89995 1.25C5.82495 1.25 6.69995 1.55 7.44995 2.125C7.64995 2.275 7.82495 2.425 7.99995 2.625C8.17495 2.45 8.34995 2.275 8.54995 2.125C9.29995 1.55 10.15 1.25 11.1 1.25C12.35 1.25 13.475 1.75 14.3 2.65C15.125 3.525 15.55 4.725 15.55 6C15.55 7.325 15.075 8.5 14.025 9.75C13.15 10.8 11.9 11.85 10.475 13.05C9.99995 13.45 9.44995 13.925 8.87495 14.4C8.64995 14.625 8.32495 14.75 7.99995 14.75ZM4.89995 2.375C3.97495 2.375 3.12495 2.75 2.49995 3.4C1.89995 4.075 1.57495 5 1.57495 6C1.57495 7.025 1.97495 8 2.82495 9.025C3.64995 10 4.84995 11.025 6.22495 12.2C6.69995 12.6 7.24995 13.075 7.82495 13.575C7.92495 13.65 8.07495 13.65 8.17495 13.575C8.74995 13.075 9.29995 12.625 9.77495 12.2C11.175 11 12.375 10 13.175 9.025C14.025 8 14.425 7.025 14.425 6C14.425 5 14.075 4.075 13.475 3.425C12.85 2.75 12 2.375 11.1 2.375C10.425 2.375 9.79995 2.6 9.24995 3C9.02495 3.175 8.82495 3.375 8.62495 3.6C8.47495 3.775 8.24995 3.9 7.99995 3.9C7.74995 3.9 7.54995 3.8 7.37495 3.6C7.17495 3.375 6.97495 3.175 6.74995 3C6.22495 2.6 5.59995 2.375 4.89995 2.375Z" fill="#131604"/>
</svg>
